ply
format ascii 1.0
element vertex 722
property float x
property float y
property float z
property uchar red
property uchar green
property uchar blue
end_header
226.0 231.0 202.0 226 231 202
224.0 226.0 218.0 224 226 218
228.0 232.0 203.0 228 232 203
225.0 232.0 194.0 225 232 194
195.0 200.0 194.0 195 200 194
201.0 208.0 198.0 201 208 198
196.0 201.0 196.0 196 201 196
147.0 182.0 202.0 147 182 202
131.0 175.0 221.0 131 175 221
140.0 188.0 218.0 140 188 218
178.0 129.0 209.0 178 129 209
176.0 129.0 196.0 176 129 196
178.0 128.0 207.0 178 128 207
181.0 137.0 206.0 181 137 206
179.0 238.0 164.0 179 238 164
144.0 213.0 147.0 144 213 147
143.0 220.0 133.0 143 220 133
217.0 142.0 169.0 217 142 169
221.0 157.0 168.0 221 157 168
194.0 137.0 176.0 194 137 176
213.0 191.0 128.0 213 191 128
230.0 155.0 143.0 230 155 143
236.0 161.0 141.0 236 161 141
225.0 181.0 140.0 225 181 140
229.0 171.0 138.0 229 171 138
233.0 184.0 144.0 233 184 144
233.0 183.0 140.0 233 183 140
231.0 179.0 141.0 231 179 141
230.0 142.0 176.0 230 142 176
232.0 158.0 187.0 232 158 187
227.0 156.0 174.0 227 156 174
207.0 128.0 146.0 207 128 146
219.0 131.0 137.0 219 131 137
197.0 138.0 155.0 197 138 155
197.0 138.0 150.0 197 138 150
235.0 229.0 169.0 235 229 169
233.0 233.0 186.0 233 233 186
241.0 204.0 159.0 241 204 159
225.0 217.0 160.0 225 217 160
211.0 203.0 147.0 211 203 147
220.0 201.0 136.0 220 201 136
211.0 192.0 132.0 211 192 132
178.0 227.0 229.0 178 227 229
152.0 216.0 224.0 152 216 224
139.0 211.0 230.0 139 211 230
140.0 228.0 199.0 140 228 199
207.0 175.0 220.0 207 175 220
205.0 173.0 219.0 205 173 219
206.0 173.0 222.0 206 173 222
199.0 162.0 220.0 199 162 220
235.0 165.0 199.0 235 165 199
232.0 172.0 193.0 232 172 193
240.0 165.0 200.0 240 165 200
201.0 157.0 221.0 201 157 221
184.0 190.0 190.0 184 190 190
166.0 162.0 136.0 166 162 136
190.0 156.0 160.0 190 156 160
142.0 147.0 142.0 142 147 142
143.0 147.0 143.0 143 147 143
144.0 149.0 139.0 144 149 139
156.0 148.0 136.0 156 148 136
152.0 154.0 136.0 152 154 136
133.0 135.0 130.0 133 135 130
88.0 122.0 209.0 88 122 209
69.0 105.0 193.0 69 105 193
112.0 87.0 204.0 112 87 204
99.0 82.0 196.0 99 82 196
99.0 121.0 206.0 99 121 206
113.0 126.0 217.0 113 126 217
31.0 43.0 208.0 31 43 208
34.0 59.0 202.0 34 59 202
44.0 119.0 178.0 44 119 178
51.0 85.0 142.0 51 85 142
37.0 85.0 154.0 37 85 154
40.0 67.0 136.0 40 67 136
42.0 70.0 153.0 42 70 153
52.0 90.0 150.0 52 90 150
57.0 98.0 151.0 57 98 151
60.0 100.0 154.0 60 100 154
48.0 116.0 145.0 48 116 145
54.0 81.0 169.0 54 81 169
47.0 69.0 178.0 47 69 178
101.0 29.0 141.0 101 29 141
122.0 50.0 133.0 122 50 133
118.0 41.0 140.0 118 41 140
83.0 51.0 169.0 83 51 169
79.0 65.0 173.0 79 65 173
86.0 123.0 154.0 86 123 154
76.0 116.0 157.0 76 116 157
110.0 123.0 129.0 110 123 129
107.0 127.0 135.0 107 127 135
75.0 118.0 187.0 75 118 187
70.0 119.0 169.0 70 119 169
75.0 120.0 166.0 75 120 166
77.0 125.0 187.0 77 125 187
75.0 112.0 160.0 75 112 160
39.0 113.0 226.0 39 113 226
40.0 105.0 225.0 40 105 225
36.0 70.0 212.0 36 70 212
55.0 97.0 197.0 55 97 197
58.0 99.0 192.0 58 99 192
57.0 99.0 194.0 57 99 194
48.0 117.0 202.0 48 117 202
53.0 105.0 200.0 53 105 200
51.0 107.0 200.0 51 107 200
48.0 123.0 199.0 48 123 199
95.0 59.0 197.0 95 59 197
95.0 62.0 198.0 95 62 198
91.0 61.0 198.0 91 61 198
95.0 57.0 197.0 95 57 197
94.0 62.0 197.0 94 62 197
91.0 54.0 193.0 91 54 193
92.0 58.0 199.0 92 58 199
92.0 58.0 197.0 92 58 197
94.0 55.0 195.0 94 55 195
96.0 51.0 193.0 96 51 193
96.0 52.0 193.0 96 52 193
96.0 57.0 195.0 96 57 195
96.0 59.0 200.0 96 59 200
96.0 58.0 196.0 96 58 196
98.0 54.0 195.0 98 54 195
96.0 59.0 195.0 96 59 195
96.0 58.0 196.0 96 58 196
101.0 58.0 195.0 101 58 195
39.0 43.0 181.0 39 43 181
46.0 62.0 184.0 46 62 184
38.0 60.0 161.0 38 60 161
35.0 44.0 154.0 35 44 154
107.0 230.0 118.0 107 230 118
118.0 224.0 106.0 118 224 106
113.0 221.0 82.0 113 221 82
97.0 217.0 91.0 97 217 91
105.0 201.0 109.0 105 201 109
124.0 192.0 115.0 124 192 115
88.0 211.0 92.0 88 211 92
54.0 178.0 125.0 54 178 125
62.0 179.0 126.0 62 179 126
52.0 150.0 70.0 52 150 70
62.0 175.0 64.0 62 175 64
54.0 186.0 73.0 54 186 73
39.0 166.0 68.0 39 166 68
47.0 174.0 89.0 47 174 89
49.0 153.0 105.0 49 153 105
114.0 191.0 41.0 114 191 41
84.0 179.0 55.0 84 179 55
76.0 181.0 55.0 76 181 55
76.0 183.0 50.0 76 183 50
84.0 183.0 57.0 84 183 57
123.0 135.0 47.0 123 135 47
108.0 142.0 53.0 108 142 53
107.0 142.0 62.0 107 142 62
110.0 134.0 54.0 110 134 54
104.0 130.0 56.0 104 130 56
117.0 144.0 48.0 117 144 48
115.0 131.0 56.0 115 131 56
123.0 130.0 45.0 123 130 45
114.0 152.0 61.0 114 152 61
107.0 225.0 43.0 107 225 43
100.0 236.0 38.0 100 236 38
112.0 227.0 49.0 112 227 49
86.0 202.0 47.0 86 202 47
64.0 226.0 51.0 64 226 51
83.0 238.0 48.0 83 238 48
80.0 238.0 49.0 80 238 49
77.0 236.0 45.0 77 236 45
74.0 233.0 52.0 74 233 52
119.0 200.0 53.0 119 200 53
104.0 211.0 60.0 104 211 60
102.0 193.0 38.0 102 193 38
117.0 160.0 115.0 117 160 115
105.0 164.0 102.0 105 164 102
98.0 187.0 101.0 98 187 101
75.0 183.0 74.0 75 183 74
73.0 174.0 66.0 73 174 66
73.0 191.0 65.0 73 191 65
74.0 185.0 67.0 74 185 67
86.0 162.0 81.0 86 162 81
77.0 187.0 72.0 77 187 72
102.0 152.0 68.0 102 152 68
103.0 155.0 65.0 103 155 65
125.0 149.0 69.0 125 149 69
109.0 153.0 76.0 109 153 76
113.0 149.0 75.0 113 149 75
103.0 166.0 91.0 103 166 91
125.0 168.0 75.0 125 168 75
110.0 184.0 74.0 110 184 74
101.0 171.0 94.0 101 171 94
105.0 185.0 90.0 105 185 90
77.0 179.0 103.0 77 179 103
65.0 188.0 112.0 65 188 112
71.0 180.0 112.0 71 180 112
121.0 153.0 115.0 121 153 115
121.0 157.0 117.0 121 157 117
117.0 154.0 114.0 117 154 114
118.0 152.0 114.0 118 152 114
103.0 148.0 113.0 103 148 113
121.0 154.0 120.0 121 154 120
119.0 156.0 118.0 119 156 118
119.0 158.0 115.0 119 158 115
126.0 128.0 122.0 126 128 122
123.0 153.0 115.0 123 153 115
119.0 157.0 115.0 119 157 115
46.0 176.0 63.0 46 176 63
44.0 177.0 58.0 44 177 58
53.0 143.0 52.0 53 143 52
62.0 153.0 49.0 62 153 49
51.0 137.0 55.0 51 137 55
233.0 120.0 121.0 233 120 121
230.0 119.0 109.0 230 119 109
193.0 114.0 73.0 193 114 73
229.0 100.0 92.0 229 100 92
200.0 77.0 80.0 200 77 80
210.0 89.0 88.0 210 89 88
206.0 90.0 88.0 206 90 88
223.0 77.0 87.0 223 77 87
167.0 35.0 121.0 167 35 121
165.0 33.0 117.0 165 33 117
168.0 34.0 120.0 168 34 120
161.0 43.0 109.0 161 43 109
159.0 35.0 94.0 159 35 94
186.0 63.0 66.0 186 63 66
181.0 38.0 92.0 181 38 92
177.0 55.0 73.0 177 55 73
162.0 34.0 91.0 162 34 91
164.0 35.0 92.0 164 35 92
170.0 38.0 86.0 170 38 86
151.0 40.0 99.0 151 40 99
157.0 38.0 108.0 157 38 108
159.0 36.0 99.0 159 36 99
157.0 37.0 109.0 157 37 109
161.0 25.0 106.0 161 25 106
160.0 31.0 110.0 160 31 110
134.0 31.0 69.0 134 31 69
169.0 127.0 39.0 169 127 39
189.0 110.0 37.0 189 110 37
184.0 107.0 37.0 184 107 37
163.0 96.0 38.0 163 96 38
172.0 96.0 41.0 172 96 41
179.0 109.0 46.0 179 109 46
137.0 86.0 47.0 137 86 47
140.0 71.0 39.0 140 71 39
139.0 91.0 44.0 139 91 44
136.0 89.0 43.0 136 89 43
131.0 94.0 45.0 131 94 45
129.0 96.0 28.0 129 96 28
136.0 97.0 29.0 136 97 29
158.0 111.0 57.0 158 111 57
134.0 105.0 52.0 134 105 52
143.0 111.0 47.0 143 111 47
143.0 104.0 60.0 143 104 60
137.0 127.0 63.0 137 127 63
157.0 110.0 63.0 157 110 63
146.0 111.0 58.0 146 111 58
155.0 110.0 57.0 155 110 57
136.0 111.0 47.0 136 111 47
133.0 98.0 44.0 133 98 44
173.0 86.0 35.0 173 86 35
161.0 68.0 36.0 161 68 36
162.0 65.0 41.0 162 65 41
172.0 72.0 37.0 172 72 37
168.0 64.0 49.0 168 64 49
161.0 81.0 32.0 161 81 32
130.0 93.0 29.0 130 93 29
192.0 29.0 43.0 192 29 43
207.0 27.0 48.0 207 27 48
224.0 27.0 27.0 224 27 27
216.0 60.0 43.0 216 60 43
194.0 34.0 61.0 194 34 61
203.0 38.0 44.0 203 38 44
235.0 30.0 41.0 235 30 41
228.0 122.0 37.0 228 122 37
226.0 122.0 33.0 226 122 33
217.0 65.0 36.0 217 65 36
221.0 68.0 39.0 221 68 39
222.0 77.0 36.0 222 77 36
222.0 69.0 34.0 222 69 34
222.0 70.0 35.0 222 70 35
193.0 66.0 60.0 193 66 60
223.0 72.0 37.0 223 72 37
193.0 95.0 56.0 193 95 56
222.0 68.0 37.0 222 68 37
201.0 98.0 30.0 201 98 30
242.0 113.0 28.0 242 113 28
198.0 117.0 37.0 198 117 37
192.0 110.0 36.0 192 110 36
192.0 113.0 36.0 192 113 36
207.0 101.0 32.0 207 101 32
221.0 126.0 34.0 221 126 34
194.0 112.0 36.0 194 112 36
194.0 114.0 38.0 194 114 38
192.0 96.0 58.0 192 96 58
216.0 88.0 24.0 216 88 24
203.0 95.0 28.0 203 95 28
181.0 120.0 103.0 181 120 103
190.0 109.0 121.0 190 109 121
135.0 67.0 104.0 135 67 104
135.0 119.0 72.0 135 119 72
135.0 119.0 91.0 135 119 91
134.0 118.0 90.0 134 118 90
134.0 117.0 90.0 134 117 90
134.0 120.0 93.0 134 120 93
134.0 118.0 92.0 134 118 92
152.0 113.0 74.0 152 113 74
133.0 116.0 90.0 133 116 90
136.0 119.0 90.0 136 119 90
170.0 69.0 90.0 170 69 90
178.0 114.0 76.0 178 114 76
164.0 87.0 124.0 164 87 124
183.0 90.0 103.0 183 90 103
181.0 67.0 99.0 181 67 99
195.0 55.0 71.0 195 55 71
195.0 33.0 66.0 195 33 66
217.0 45.0 81.0 217 45 81
219.0 55.0 95.0 219 55 95
196.0 59.0 70.0 196 59 70
218.0 46.0 88.0 218 46 88
216.0 49.0 91.0 216 49 91
217.0 44.0 84.0 217 44 84
217.0 46.0 85.0 217 46 85
216.0 48.0 88.0 216 48 88
221.0 54.0 83.0 221 54 83
206.0 45.0 121.0 206 45 121
199.0 62.0 123.0 199 62 123
207.0 45.0 126.0 207 45 126
219.0 55.0 96.0 219 55 96
165.0 53.0 36.0 165 53 36
163.0 44.0 37.0 163 44 37
167.0 51.0 35.0 167 51 35
128.0 31.0 52.0 128 31 52
141.0 27.0 55.0 141 27 55
143.0 27.0 33.0 143 27 33
133.0 30.0 55.0 133 30 55
131.0 31.0 53.0 131 31 53
149.0 62.0 44.0 149 62 44
137.0 51.0 53.0 137 51 53
150.0 60.0 42.0 150 60 42
155.0 34.0 40.0 155 34 40
131.0 32.0 55.0 131 32 55
146.0 61.0 46.0 146 61 46
146.0 61.0 42.0 146 61 42
130.0 34.0 50.0 130 34 50
150.0 60.0 45.0 150 60 45
148.0 59.0 41.0 148 59 41
156.0 58.0 44.0 156 58 44
144.0 61.0 44.0 144 61 44
160.0 30.0 62.0 160 30 62
169.0 26.0 44.0 169 26 44
159.0 24.0 28.0 159 24 28
154.0 23.0 31.0 154 23 31
234.0 237.0 117.0 234 237 117
236.0 235.0 112.0 236 235 112
239.0 231.0 102.0 239 231 102
232.0 234.0 118.0 232 234 118
216.0 198.0 98.0 216 198 98
216.0 192.0 122.0 216 192 122
214.0 234.0 72.0 214 234 72
225.0 219.0 79.0 225 219 79
239.0 231.0 64.0 239 231 64
229.0 239.0 64.0 229 239 64
216.0 210.0 71.0 216 210 71
218.0 208.0 74.0 218 208 74
174.0 167.0 121.0 174 167 121
130.0 128.0 127.0 130 128 127
146.0 141.0 124.0 146 141 124
158.0 148.0 99.0 158 148 99
153.0 137.0 123.0 153 137 123
129.0 155.0 122.0 129 155 122
142.0 128.0 104.0 142 128 104
147.0 137.0 122.0 147 137 122
129.0 156.0 123.0 129 156 123
138.0 183.0 66.0 138 183 66
141.0 185.0 69.0 141 185 69
155.0 191.0 84.0 155 191 84
180.0 153.0 95.0 180 153 95
191.0 155.0 84.0 191 155 84
172.0 133.0 68.0 172 133 68
176.0 132.0 74.0 176 132 74
163.0 190.0 87.0 163 190 87
161.0 160.0 83.0 161 160 83
129.0 178.0 108.0 129 178 108
134.0 178.0 112.0 134 178 112
168.0 134.0 102.0 168 134 102
174.0 156.0 114.0 174 156 114
178.0 143.0 100.0 178 143 100
139.0 146.0 65.0 139 146 65
157.0 155.0 77.0 157 155 77
158.0 153.0 88.0 158 153 88
140.0 142.0 75.0 140 142 75
150.0 146.0 95.0 150 146 95
141.0 196.0 53.0 141 196 53
156.0 210.0 53.0 156 210 53
159.0 205.0 57.0 159 205 57
159.0 213.0 52.0 159 213 52
129.0 227.0 57.0 129 227 57
190.0 219.0 52.0 190 219 52
169.0 214.0 55.0 169 214 55
162.0 216.0 50.0 162 216 50
161.0 218.0 53.0 161 218 53
190.0 194.0 44.0 190 194 44
161.0 213.0 51.0 161 213 51
169.0 219.0 51.0 169 219 51
226.0 185.0 39.0 226 185 39
235.0 176.0 42.0 235 176 42
233.0 175.0 38.0 233 175 38
233.0 174.0 38.0 233 174 38
234.0 172.0 39.0 234 172 39
208.0 128.0 41.0 208 128 41
208.0 146.0 38.0 208 146 38
217.0 131.0 53.0 217 131 53
209.0 178.0 38.0 209 178 38
206.0 176.0 39.0 206 176 39
200.0 180.0 38.0 200 180 38
208.0 188.0 40.0 208 188 40
219.0 184.0 40.0 219 184 40
216.0 180.0 42.0 216 180 42
203.0 180.0 41.0 203 180 41
216.0 191.0 61.0 216 191 61
201.0 170.0 44.0 201 170 44
236.0 136.0 49.0 236 136 49
234.0 235.0 37.0 234 235 37
202.0 195.0 52.0 202 195 52
204.0 204.0 52.0 204 204 52
193.0 220.0 52.0 193 220 52
194.0 221.0 53.0 194 221 53
208.0 244.0 39.0 208 244 39
229.0 194.0 39.0 229 194 39
226.0 221.0 54.0 226 221 54
225.0 219.0 54.0 225 219 54
168.0 232.0 112.0 168 232 112
175.0 232.0 105.0 175 232 105
179.0 231.0 101.0 179 231 101
148.0 222.0 120.0 148 222 120
150.0 234.0 94.0 150 234 94
155.0 232.0 103.0 155 232 103
157.0 236.0 103.0 157 236 103
170.0 200.0 117.0 170 200 117
170.0 221.0 113.0 170 221 113
150.0 194.0 68.0 150 194 68
157.0 198.0 66.0 157 198 66
138.0 197.0 71.0 138 197 71
141.0 194.0 71.0 141 194 71
236.0 163.0 101.0 236 163 101
237.0 165.0 119.0 237 165 119
234.0 158.0 81.0 234 158 81
237.0 160.0 72.0 237 160 72
192.0 161.0 102.0 192 161 102
210.0 187.0 106.0 210 187 106
199.0 164.0 106.0 199 164 106
203.0 172.0 103.0 203 172 103
195.0 159.0 80.0 195 159 80
219.0 139.0 89.0 219 139 89
218.0 128.0 94.0 218 128 94
191.0 170.0 45.0 191 170 45
162.0 169.0 52.0 162 169 52
160.0 179.0 36.0 160 179 36
162.0 171.0 53.0 162 171 53
128.0 147.0 53.0 128 147 53
170.0 141.0 28.0 170 141 28
175.0 132.0 31.0 175 132 31
173.0 145.0 30.0 173 145 30
142.0 178.0 51.0 142 178 51
156.0 165.0 59.0 156 165 59
158.0 191.0 57.0 158 191 57
149.0 176.0 57.0 149 176 57
145.0 179.0 49.0 145 179 49
155.0 180.0 57.0 155 180 57
137.0 186.0 59.0 137 186 59
162.0 153.0 40.0 162 153 40
190.0 132.0 46.0 190 132 46
179.0 153.0 41.0 179 153 41
185.0 150.0 46.0 185 150 46
188.0 139.0 46.0 188 139 46
191.0 149.0 56.0 191 149 56
180.0 152.0 41.0 180 152 41
173.0 144.0 40.0 173 144 40
103.0 205.0 215.0 103 205 215
123.0 222.0 193.0 123 222 193
125.0 227.0 216.0 125 227 216
111.0 227.0 201.0 111 227 201
120.0 193.0 228.0 120 193 228
92.0 202.0 216.0 92 202 216
91.0 199.0 215.0 91 199 215
67.0 212.0 211.0 67 212 211
90.0 196.0 215.0 90 196 215
95.0 222.0 196.0 95 222 196
40.0 162.0 228.0 40 162 228
56.0 186.0 233.0 56 186 233
61.0 134.0 206.0 61 134 206
49.0 130.0 216.0 49 130 216
60.0 147.0 209.0 60 147 209
55.0 188.0 201.0 55 188 201
59.0 206.0 143.0 59 206 143
52.0 202.0 141.0 52 202 141
49.0 195.0 178.0 49 195 178
45.0 222.0 191.0 45 222 191
55.0 193.0 176.0 55 193 176
55.0 193.0 175.0 55 193 175
57.0 192.0 174.0 57 192 174
59.0 197.0 180.0 59 197 180
58.0 198.0 177.0 58 198 177
53.0 195.0 178.0 53 195 178
61.0 205.0 188.0 61 205 188
58.0 197.0 172.0 58 197 172
87.0 131.0 173.0 87 131 173
107.0 137.0 158.0 107 137 158
124.0 128.0 129.0 124 128 129
119.0 132.0 139.0 119 132 139
127.0 130.0 129.0 127 130 129
108.0 139.0 158.0 108 139 158
118.0 135.0 145.0 118 135 145
120.0 139.0 147.0 120 139 147
124.0 145.0 158.0 124 145 158
111.0 128.0 133.0 111 128 133
66.0 160.0 168.0 66 160 168
105.0 138.0 162.0 105 138 162
126.0 147.0 163.0 126 147 163
109.0 140.0 161.0 109 140 161
106.0 140.0 164.0 106 140 164
121.0 145.0 160.0 121 145 160
104.0 139.0 163.0 104 139 163
110.0 140.0 160.0 110 140 160
101.0 137.0 165.0 101 137 165
104.0 138.0 161.0 104 138 161
98.0 135.0 187.0 98 135 187
102.0 137.0 164.0 102 137 164
90.0 128.0 159.0 90 128 159
113.0 224.0 166.0 113 224 166
94.0 210.0 180.0 94 210 180
109.0 210.0 142.0 109 210 142
97.0 218.0 157.0 97 218 157
96.0 221.0 152.0 96 221 152
127.0 225.0 135.0 127 225 135
113.0 225.0 148.0 113 225 148
104.0 224.0 140.0 104 224 140
100.0 218.0 160.0 100 218 160
96.0 219.0 173.0 96 219 173
118.0 205.0 176.0 118 205 176
103.0 221.0 177.0 103 221 177
72.0 200.0 140.0 72 200 140
94.0 220.0 150.0 94 220 150
74.0 201.0 138.0 74 201 138
89.0 221.0 133.0 89 221 133
45.0 227.0 207.0 45 227 207
46.0 228.0 206.0 46 228 206
52.0 202.0 230.0 52 202 230
106.0 177.0 224.0 106 177 224
92.0 178.0 221.0 92 178 221
98.0 184.0 222.0 98 184 222
99.0 179.0 222.0 99 179 222
122.0 170.0 217.0 122 170 217
103.0 176.0 207.0 103 176 207
90.0 180.0 226.0 90 180 226
68.0 135.0 215.0 68 135 215
90.0 131.0 206.0 90 131 206
80.0 150.0 219.0 80 150 219
52.0 190.0 172.0 52 190 172
49.0 152.0 157.0 49 152 157
39.0 138.0 133.0 39 138 133
58.0 176.0 149.0 58 176 149
57.0 171.0 152.0 57 171 152
51.0 168.0 139.0 51 168 139
56.0 179.0 159.0 56 179 159
52.0 178.0 128.0 52 178 128
54.0 170.0 145.0 54 170 145
50.0 172.0 136.0 50 172 136
55.0 186.0 129.0 55 186 129
55.0 177.0 134.0 55 177 134
52.0 176.0 133.0 52 176 133
55.0 171.0 151.0 55 171 151
51.0 170.0 140.0 51 170 140
52.0 178.0 128.0 52 178 128
52.0 143.0 169.0 52 143 169
50.0 139.0 178.0 50 139 178
44.0 152.0 166.0 44 152 166
174.0 40.0 209.0 174 40 209
182.0 41.0 216.0 182 41 216
166.0 40.0 212.0 166 40 212
168.0 48.0 213.0 168 48 213
160.0 109.0 162.0 160 109 162
144.0 71.0 167.0 144 71 167
146.0 74.0 176.0 146 74 176
148.0 71.0 169.0 148 71 169
148.0 69.0 182.0 148 69 182
143.0 85.0 173.0 143 85 173
143.0 89.0 173.0 143 89 173
132.0 106.0 139.0 132 106 139
135.0 109.0 142.0 135 109 142
135.0 117.0 137.0 135 117 137
138.0 115.0 145.0 138 115 145
136.0 109.0 142.0 136 109 142
132.0 110.0 140.0 132 110 140
136.0 111.0 141.0 136 111 141
133.0 111.0 140.0 133 111 140
135.0 109.0 139.0 135 109 139
144.0 125.0 148.0 144 125 148
135.0 106.0 139.0 135 106 139
136.0 109.0 142.0 136 109 142
166.0 94.0 141.0 166 94 141
157.0 102.0 185.0 157 102 185
151.0 107.0 161.0 151 107 161
165.0 83.0 191.0 165 83 191
184.0 91.0 191.0 184 91 191
131.0 88.0 134.0 131 88 134
135.0 93.0 138.0 135 93 138
135.0 89.0 139.0 135 89 139
158.0 76.0 134.0 158 76 134
237.0 39.0 174.0 237 39 174
235.0 47.0 168.0 235 47 168
200.0 39.0 152.0 200 39 152
232.0 39.0 155.0 232 39 155
232.0 36.0 159.0 232 36 159
211.0 43.0 164.0 211 43 164
205.0 46.0 169.0 205 46 169
207.0 46.0 164.0 207 46 164
206.0 63.0 178.0 206 63 178
206.0 43.0 165.0 206 43 165
223.0 34.0 176.0 223 34 176
201.0 50.0 162.0 201 50 162
208.0 45.0 167.0 208 45 167
206.0 43.0 165.0 206 43 165
205.0 51.0 170.0 205 51 170
205.0 46.0 163.0 205 46 163
207.0 47.0 168.0 207 47 168
234.0 124.0 165.0 234 124 165
238.0 109.0 182.0 238 109 182
199.0 67.0 182.0 199 67 182
210.0 79.0 186.0 210 79 186
202.0 69.0 183.0 202 69 183
205.0 72.0 185.0 205 72 185
205.0 79.0 186.0 205 79 186
204.0 69.0 184.0 204 69 184
211.0 88.0 181.0 211 88 181
202.0 68.0 182.0 202 68 182
202.0 69.0 182.0 202 69 182
201.0 73.0 180.0 201 73 180
203.0 68.0 184.0 203 68 184
201.0 122.0 139.0 201 122 139
204.0 118.0 140.0 204 118 140
218.0 102.0 153.0 218 102 153
212.0 97.0 129.0 212 97 129
222.0 107.0 143.0 222 107 143
197.0 117.0 129.0 197 117 129
211.0 124.0 151.0 211 124 151
226.0 91.0 168.0 226 91 168
236.0 67.0 176.0 236 67 176
204.0 66.0 141.0 204 66 141
131.0 126.0 213.0 131 126 213
131.0 127.0 216.0 131 127 216
171.0 85.0 201.0 171 85 201
178.0 107.0 208.0 178 107 208
178.0 114.0 212.0 178 114 212
175.0 107.0 210.0 175 107 210
173.0 121.0 203.0 173 121 203
178.0 122.0 208.0 178 122 208
176.0 126.0 208.0 176 126 208
188.0 88.0 227.0 188 88 227
192.0 36.0 203.0 192 36 203
160.0 47.0 173.0 160 47 173
145.0 58.0 174.0 145 58 174
137.0 52.0 169.0 137 52 169
143.0 60.0 181.0 143 60 181
144.0 55.0 176.0 144 55 176
156.0 40.0 169.0 156 40 169
141.0 52.0 172.0 141 52 172
147.0 57.0 176.0 147 57 176
96.0 110.0 118.0 96 110 118
127.0 127.0 127.0 127 127 127
120.0 70.0 83.0 120 70 83
69.0 73.0 73.0 69 73 73
73.0 75.0 76.0 73 75 76
33.0 43.0 126.0 33 43 126
53.0 35.0 113.0 53 35 113
31.0 35.0 93.0 31 35 93
25.0 34.0 76.0 25 34 76
37.0 34.0 82.0 37 34 82
31.0 44.0 103.0 31 44 103
30.0 43.0 109.0 30 43 109
24.0 31.0 72.0 24 31 72
25.0 30.0 67.0 25 30 67
48.0 118.0 52.0 48 118 52
48.0 119.0 58.0 48 119 58
47.0 111.0 47.0 47 111 47
42.0 101.0 44.0 42 101 44
36.0 112.0 40.0 36 112 40
41.0 100.0 41.0 41 100 41
43.0 119.0 57.0 43 119 57
47.0 122.0 51.0 47 122 51
46.0 113.0 46.0 46 113 46
59.0 120.0 62.0 59 120 62
29.0 91.0 37.0 29 91 37
32.0 69.0 33.0 32 69 33
100.0 57.0 36.0 100 57 36
125.0 47.0 33.0 125 47 33
90.0 26.0 43.0 90 26 43
72.0 41.0 26.0 72 41 26
93.0 53.0 32.0 93 53 32
127.0 30.0 52.0 127 30 52
99.0 125.0 56.0 99 125 56
120.0 121.0 42.0 120 121 42
120.0 126.0 44.0 120 126 44
123.0 126.0 43.0 123 126 43
97.0 123.0 49.0 97 123 49
123.0 121.0 42.0 123 121 42
125.0 110.0 41.0 125 110 41
75.0 96.0 32.0 75 96 32
83.0 96.0 34.0 83 96 34
123.0 89.0 39.0 123 89 39
36.0 125.0 121.0 36 125 121
37.0 113.0 108.0 37 113 108
31.0 98.0 91.0 31 98 91
63.0 66.0 65.0 63 66 65
33.0 97.0 89.0 33 97 89
117.0 44.0 100.0 117 44 100
87.0 27.0 108.0 87 27 108
103.0 42.0 91.0 103 42 91
97.0 41.0 93.0 97 41 93
85.0 32.0 100.0 85 32 100
95.0 38.0 116.0 95 38 116
95.0 32.0 119.0 95 32 119
35.0 33.0 35.0 35 33 35
28.0 57.0 30.0 28 57 30
55.0 23.0 61.0 55 23 61
