ply
format ascii 1.0
element vertex 221
property float x
property float y
property float z
property uchar red
property uchar green
property uchar blue
end_header
224.0 226.0 218.0 224 226 218
228.0 232.0 203.0 228 232 203
196.0 201.0 196.0 196 201 196
195.0 200.0 194.0 195 200 194
235.0 229.0 169.0 235 229 169
211.0 192.0 132.0 211 192 132
231.0 179.0 141.0 231 179 141
229.0 171.0 138.0 229 171 138
240.0 165.0 200.0 240 165 200
235.0 165.0 199.0 235 165 199
232.0 172.0 193.0 232 172 193
178.0 128.0 207.0 178 128 207
178.0 129.0 209.0 178 129 209
176.0 129.0 196.0 176 129 196
131.0 175.0 221.0 131 175 221
140.0 188.0 218.0 140 188 218
142.0 147.0 142.0 142 147 142
143.0 147.0 143.0 143 147 143
143.0 220.0 133.0 143 220 133
234.0 237.0 117.0 234 237 117
232.0 234.0 118.0 232 234 118
226.0 221.0 54.0 226 221 54
194.0 221.0 53.0 194 221 53
206.0 176.0 39.0 206 176 39
200.0 180.0 38.0 200 180 38
208.0 188.0 40.0 208 188 40
219.0 184.0 40.0 219 184 40
203.0 180.0 41.0 203 180 41
237.0 165.0 119.0 237 165 119
237.0 160.0 72.0 237 160 72
234.0 158.0 81.0 234 158 81
210.0 187.0 106.0 210 187 106
203.0 172.0 103.0 203 172 103
163.0 190.0 87.0 163 190 87
161.0 160.0 83.0 161 160 83
172.0 133.0 68.0 172 133 68
176.0 132.0 74.0 176 132 74
134.0 178.0 112.0 134 178 112
129.0 178.0 108.0 129 178 108
168.0 134.0 102.0 168 134 102
174.0 156.0 114.0 174 156 114
158.0 148.0 99.0 158 148 99
162.0 169.0 52.0 162 169 52
162.0 171.0 53.0 162 171 53
145.0 179.0 49.0 145 179 49
137.0 186.0 59.0 137 186 59
188.0 139.0 46.0 188 139 46
128.0 147.0 53.0 128 147 53
129.0 227.0 57.0 129 227 57
161.0 213.0 51.0 161 213 51
162.0 216.0 50.0 162 216 50
161.0 218.0 53.0 161 218 53
169.0 219.0 51.0 169 219 51
156.0 210.0 53.0 156 210 53
159.0 213.0 52.0 159 213 52
230.0 119.0 109.0 230 119 109
229.0 100.0 92.0 229 100 92
223.0 77.0 87.0 223 77 87
228.0 122.0 37.0 228 122 37
221.0 126.0 34.0 221 126 34
194.0 112.0 36.0 194 112 36
222.0 69.0 34.0 222 69 34
222.0 70.0 35.0 222 70 35
193.0 95.0 56.0 193 95 56
203.0 95.0 28.0 203 95 28
201.0 98.0 30.0 201 98 30
203.0 38.0 44.0 203 38 44
235.0 30.0 41.0 235 30 41
192.0 29.0 43.0 192 29 43
206.0 45.0 121.0 206 45 121
199.0 62.0 123.0 199 62 123
217.0 46.0 85.0 217 46 85
160.0 31.0 110.0 160 31 110
134.0 31.0 69.0 134 31 69
163.0 44.0 37.0 163 44 37
146.0 61.0 42.0 146 61 42
150.0 60.0 42.0 150 60 42
131.0 32.0 55.0 131 32 55
169.0 26.0 44.0 169 26 44
143.0 27.0 33.0 143 27 33
128.0 31.0 52.0 128 31 52
159.0 24.0 28.0 159 24 28
172.0 96.0 41.0 172 96 41
168.0 64.0 49.0 168 64 49
173.0 86.0 35.0 173 86 35
172.0 72.0 37.0 172 72 37
136.0 89.0 43.0 136 89 43
120.0 193.0 228.0 120 193 228
95.0 222.0 196.0 95 222 196
67.0 212.0 211.0 67 212 211
92.0 202.0 216.0 92 202 216
127.0 225.0 135.0 127 225 135
113.0 225.0 148.0 113 225 148
104.0 224.0 140.0 104 224 140
97.0 218.0 157.0 97 218 157
96.0 221.0 152.0 96 221 152
100.0 218.0 160.0 100 218 160
94.0 210.0 180.0 94 210 180
74.0 201.0 138.0 74 201 138
94.0 220.0 150.0 94 220 150
107.0 137.0 158.0 107 137 158
108.0 139.0 158.0 108 139 158
104.0 138.0 161.0 104 138 161
109.0 140.0 161.0 109 140 161
110.0 140.0 160.0 110 140 160
106.0 140.0 164.0 106 140 164
101.0 137.0 165.0 101 137 165
104.0 139.0 163.0 104 139 163
90.0 128.0 159.0 90 128 159
122.0 170.0 217.0 122 170 217
98.0 184.0 222.0 98 184 222
90.0 180.0 226.0 90 180 226
55.0 188.0 201.0 55 188 201
60.0 147.0 209.0 60 147 209
51.0 168.0 139.0 51 168 139
52.0 176.0 133.0 52 176 133
51.0 170.0 140.0 51 170 140
56.0 179.0 159.0 56 179 159
52.0 178.0 128.0 52 178 128
50.0 172.0 136.0 50 172 136
57.0 171.0 152.0 57 171 152
49.0 152.0 157.0 49 152 157
50.0 139.0 178.0 50 139 178
53.0 195.0 178.0 53 195 178
58.0 198.0 177.0 58 198 177
61.0 205.0 188.0 61 205 188
55.0 193.0 175.0 55 193 175
226.0 91.0 168.0 226 91 168
202.0 69.0 183.0 202 69 183
205.0 72.0 185.0 205 72 185
212.0 97.0 129.0 212 97 129
218.0 102.0 153.0 218 102 153
197.0 117.0 129.0 197 117 129
235.0 47.0 168.0 235 47 168
232.0 39.0 155.0 232 39 155
205.0 46.0 163.0 205 46 163
208.0 45.0 167.0 208 45 167
206.0 43.0 165.0 206 43 165
206.0 43.0 165.0 206 43 165
200.0 39.0 152.0 200 39 152
178.0 114.0 212.0 178 114 212
178.0 122.0 208.0 178 122 208
178.0 107.0 208.0 178 107 208
176.0 126.0 208.0 176 126 208
131.0 127.0 216.0 131 127 216
174.0 40.0 209.0 174 40 209
182.0 41.0 216.0 182 41 216
143.0 60.0 181.0 143 60 181
141.0 52.0 172.0 141 52 172
166.0 94.0 141.0 166 94 141
143.0 89.0 173.0 143 89 173
99.0 121.0 206.0 99 121 206
88.0 122.0 209.0 88 122 209
107.0 127.0 135.0 107 127 135
86.0 123.0 154.0 86 123 154
122.0 50.0 133.0 122 50 133
101.0 29.0 141.0 101 29 141
83.0 51.0 169.0 83 51 169
39.0 113.0 226.0 39 113 226
40.0 105.0 225.0 40 105 225
55.0 97.0 197.0 55 97 197
51.0 107.0 200.0 51 107 200
48.0 123.0 199.0 48 123 199
96.0 51.0 193.0 96 51 193
101.0 58.0 195.0 101 58 195
96.0 58.0 196.0 96 58 196
95.0 57.0 197.0 95 57 197
95.0 59.0 197.0 95 59 197
92.0 58.0 199.0 92 58 199
94.0 55.0 195.0 94 55 195
39.0 43.0 181.0 39 43 181
35.0 44.0 154.0 35 44 154
44.0 119.0 178.0 44 119 178
54.0 81.0 169.0 54 81 169
69.0 73.0 73.0 69 73 73
73.0 75.0 76.0 73 75 76
97.0 123.0 49.0 97 123 49
83.0 96.0 34.0 83 96 34
100.0 57.0 36.0 100 57 36
127.0 30.0 52.0 127 30 52
72.0 41.0 26.0 72 41 26
36.0 125.0 121.0 36 125 121
37.0 113.0 108.0 37 113 108
63.0 66.0 65.0 63 66 65
117.0 44.0 100.0 117 44 100
97.0 41.0 93.0 97 41 93
85.0 32.0 100.0 85 32 100
95.0 38.0 116.0 95 38 116
87.0 27.0 108.0 87 27 108
33.0 43.0 126.0 33 43 126
30.0 43.0 109.0 30 43 109
31.0 44.0 103.0 31 44 103
31.0 35.0 93.0 31 35 93
35.0 33.0 35.0 35 33 35
41.0 100.0 41.0 41 100 41
42.0 101.0 44.0 42 101 44
46.0 113.0 46.0 46 113 46
48.0 119.0 58.0 48 119 58
47.0 111.0 47.0 47 111 47
118.0 224.0 106.0 118 224 106
113.0 221.0 82.0 113 221 82
112.0 227.0 49.0 112 227 49
64.0 226.0 51.0 64 226 51
77.0 236.0 45.0 77 236 45
104.0 211.0 60.0 104 211 60
84.0 183.0 57.0 84 183 57
84.0 179.0 55.0 84 179 55
76.0 183.0 50.0 76 183 50
115.0 131.0 56.0 115 131 56
117.0 144.0 48.0 117 144 48
117.0 160.0 115.0 117 160 115
98.0 187.0 101.0 98 187 101
103.0 166.0 91.0 103 166 91
102.0 152.0 68.0 102 152 68
109.0 153.0 76.0 109 153 76
119.0 156.0 118.0 119 156 118
121.0 157.0 117.0 121 157 117
117.0 154.0 114.0 117 154 114
119.0 158.0 115.0 119 158 115
74.0 185.0 67.0 74 185 67
44.0 177.0 58.0 44 177 58
